<svg width="125" height="142" viewBox="0 0 125 142" fill="none" xmlns="http://www.w3.org/2000/svg">
<mask id="mask0_2358_78991" style="mask-type:alpha" maskUnits="userSpaceOnUse" x="0" y="17" width="125" height="125">
<circle cx="62.5" cy="79.5" r="62.5" fill="#D9D9D9"/>
</mask>
<g mask="url(#mask0_2358_78991)">
<path fill-rule="evenodd" clip-rule="evenodd" d="M126.085 79.5478C126.085 44.3505 97.5452 15.8174 62.3397 15.8174C27.1344 15.8174 -1.40527 44.3505 -1.40527 79.5478C-1.40527 114.745 27.1344 143.278 62.3397 143.278C97.5452 143.278 126.085 114.745 126.085 79.5478Z" fill="#DFF2F1"/>
<mask id="mask1_2358_78991" style="mask-type:alpha" maskUnits="userSpaceOnUse" x="-11" y="-3" width="147" height="147">
<path fill-rule="evenodd" clip-rule="evenodd" d="M-10.8135 70.0452C-10.8135 110.338 21.8573 143.001 62.1586 143.001C102.46 143.001 135.131 110.338 135.131 70.0452C135.131 29.7531 102.46 -2.91016 62.1586 -2.91016C21.8573 -2.91016 -10.8135 29.7531 -10.8135 70.0452Z" fill="white"/>
</mask>
<g mask="url(#mask1_2358_78991)">
<path fill-rule="evenodd" clip-rule="evenodd" d="M23.0459 74.8672C20.9215 79.3279 15.7528 82.477 9.71305 82.477C3.67332 82.477 -1.49537 79.3279 -3.61984 74.8672C-8.90173 76.9901 -12.5762 81.5472 -12.5762 86.7949C-12.5762 94.0534 -5.54698 110.878 3.04442 110.878H16.3817C24.9731 110.878 32.0023 94.0534 32.0023 86.7949C32.0023 81.5472 28.3278 76.9901 23.0459 74.8672Z" fill="#D0C7E5"/>
</g>
<mask id="mask2_2358_78991" style="mask-type:alpha" maskUnits="userSpaceOnUse" x="-11" y="-3" width="147" height="147">
<path fill-rule="evenodd" clip-rule="evenodd" d="M-10.8135 70.0452C-10.8135 110.338 21.8573 143.001 62.1586 143.001C102.46 143.001 135.131 110.338 135.131 70.0452C135.131 29.7531 102.46 -2.91016 62.1586 -2.91016C21.8573 -2.91016 -10.8135 29.7531 -10.8135 70.0452Z" fill="white"/>
</mask>
<g mask="url(#mask2_2358_78991)">
<path fill-rule="evenodd" clip-rule="evenodd" d="M21.0466 68.2042C21.0466 61.9459 15.9719 56.8721 9.71168 56.8721C3.45168 56.8721 -1.62305 61.9459 -1.62305 68.2042C-1.62305 74.4628 3.45168 79.5366 9.71168 79.5366C15.9719 79.5366 21.0466 74.4628 21.0466 68.2042Z" fill="#D0C7E5"/>
</g>
<mask id="mask3_2358_78991" style="mask-type:alpha" maskUnits="userSpaceOnUse" x="-11" y="-3" width="147" height="147">
<path fill-rule="evenodd" clip-rule="evenodd" d="M-10.8135 70.0452C-10.8135 110.338 21.8573 143.001 62.1586 143.001C102.46 143.001 135.131 110.338 135.131 70.0452C135.131 29.7531 102.46 -2.91016 62.1586 -2.91016C21.8573 -2.91016 -10.8135 29.7531 -10.8135 70.0452Z" fill="white"/>
</mask>
<g mask="url(#mask3_2358_78991)">
<path fill-rule="evenodd" clip-rule="evenodd" d="M129.247 74.8672C127.123 79.3279 121.954 82.477 115.914 82.477C109.874 82.477 104.706 79.3279 102.581 74.8672C97.2994 76.9901 93.625 81.5472 93.625 86.7949C93.625 94.0534 100.654 110.878 109.246 110.878H122.583C131.174 110.878 138.203 94.0534 138.203 86.7949C138.203 81.5472 134.529 76.9901 129.247 74.8672Z" fill="#D0C7E5"/>
</g>
<mask id="mask4_2358_78991" style="mask-type:alpha" maskUnits="userSpaceOnUse" x="-11" y="-3" width="147" height="147">
<path fill-rule="evenodd" clip-rule="evenodd" d="M-10.8135 70.0452C-10.8135 110.338 21.8573 143.001 62.1586 143.001C102.46 143.001 135.131 110.338 135.131 70.0452C135.131 29.7531 102.46 -2.91016 62.1586 -2.91016C21.8573 -2.91016 -10.8135 29.7531 -10.8135 70.0452Z" fill="white"/>
</mask>
<g mask="url(#mask4_2358_78991)">
<path fill-rule="evenodd" clip-rule="evenodd" d="M127.248 68.2042C127.248 61.9459 122.173 56.8721 115.913 56.8721C109.653 56.8721 104.578 61.9459 104.578 68.2042C104.578 74.4628 109.653 79.5366 115.913 79.5366C122.173 79.5366 127.248 74.4628 127.248 68.2042Z" fill="#D0C7E5"/>
</g>
<mask id="mask5_2358_78991" style="mask-type:alpha" maskUnits="userSpaceOnUse" x="-11" y="-3" width="147" height="147">
<path fill-rule="evenodd" clip-rule="evenodd" d="M-10.8135 70.0452C-10.8135 110.338 21.8573 143.001 62.1586 143.001C102.46 143.001 135.131 110.338 135.131 70.0452C135.131 29.7531 102.46 -2.91016 62.1586 -2.91016C21.8573 -2.91016 -10.8135 29.7531 -10.8135 70.0452Z" fill="white"/>
</mask>
<g mask="url(#mask5_2358_78991)">
<path fill-rule="evenodd" clip-rule="evenodd" d="M51.5659 111.3C39.5341 108.243 29.8171 100.67 25.17 90.9131C9.9972 97.0106 -0.557617 110.101 -0.557617 125.175V125.176C-0.557617 146.026 19.6344 163.086 44.3132 163.086H82.6255C107.304 163.086 127.496 146.026 127.496 125.176V125.175C127.496 110.101 116.941 97.0106 101.769 90.9131C95.666 103.726 80.819 112.772 63.4692 112.772C59.3309 112.772 55.3348 112.258 51.5659 111.3Z" fill="#D0C7E5"/>
</g>
<mask id="mask6_2358_78991" style="mask-type:alpha" maskUnits="userSpaceOnUse" x="2" y="90" width="122" height="54">
<path fill-rule="evenodd" clip-rule="evenodd" d="M63.4669 112.773C59.3283 112.773 55.3322 112.258 51.5634 111.3C39.5318 108.243 29.8145 100.67 25.1675 90.9131C14.7178 95.1126 6.45851 102.629 2.3291 111.826C15.5224 130.676 37.399 143 62.1569 143C87.8841 143 110.502 129.688 123.496 109.58C119.094 101.408 111.352 94.7654 101.766 90.9131C95.6634 103.726 80.8164 112.773 63.4669 112.773Z" fill="white"/>
</mask>
<g mask="url(#mask6_2358_78991)">
<path fill-rule="evenodd" clip-rule="evenodd" d="M123.997 133.04C123.997 133.04 113.443 104.875 98.2697 98.7774L93.1855 85.0971L107.389 78.543L121.593 88.3742L136.89 115.902L123.997 133.04Z" fill="#A18FCC"/>
</g>
<mask id="mask7_2358_78991" style="mask-type:alpha" maskUnits="userSpaceOnUse" x="-11" y="-3" width="147" height="147">
<path fill-rule="evenodd" clip-rule="evenodd" d="M-10.8145 70.0452C-10.8145 110.338 21.8563 143.001 62.1576 143.001C102.459 143.001 135.13 110.338 135.13 70.0452C135.13 29.7531 102.459 -2.91016 62.1576 -2.91016C21.8563 -2.91016 -10.8145 29.7531 -10.8145 70.0452Z" fill="white"/>
</mask>
<g mask="url(#mask7_2358_78991)">
<path fill-rule="evenodd" clip-rule="evenodd" d="M24.5173 89.2915C25.3739 88.9472 26.3505 89.3284 26.7475 90.1618C31.1403 99.3849 40.3936 106.658 51.9956 109.606L51.5651 111.301L51.9957 109.606C55.6235 110.528 59.475 111.025 63.4684 111.025C80.2472 111.025 94.4187 102.278 100.19 90.1619C100.586 89.3284 101.563 88.9472 102.42 89.2915C118.093 95.5901 129.243 109.228 129.243 125.176V125.176C129.243 147.257 107.981 164.835 82.6247 164.835H44.3123C18.9559 164.835 -2.30664 147.257 -2.30664 125.176V125.176C-2.30664 109.228 8.8441 95.5901 24.5173 89.2915ZM24.3473 93.1572C10.4857 99.2833 1.18971 111.456 1.18971 125.176V125.176C1.18971 144.796 20.3113 161.338 44.3123 161.338H82.6247C106.626 161.338 125.747 144.796 125.747 125.176V125.176C125.747 111.456 116.451 99.2833 102.59 93.1572C95.7521 105.859 80.7216 114.521 63.4684 114.521C59.1851 114.521 55.0443 113.989 51.1345 112.995C39.2823 109.983 29.4933 102.715 24.3473 93.1572Z" fill="#545454"/>
</g>
<path fill-rule="evenodd" clip-rule="evenodd" d="M-2 79.4999C-2 43.8772 26.878 15 62.4999 15C98.122 15 127 43.8772 127 79.4999C127 115.123 98.122 144 62.4999 144C26.878 144 -2 115.123 -2 79.4999ZM62.4999 18.7515C28.9487 18.7515 1.7507 45.95 1.7507 79.4999C1.7507 113.05 28.9487 140.248 62.4999 140.248C96.0513 140.248 123.249 113.05 123.249 79.4999C123.249 45.95 96.0513 18.7515 62.4999 18.7515Z" fill="#545454"/>
<path fill-rule="evenodd" clip-rule="evenodd" d="M55.3826 54.7298C52.9864 54.7298 50.8485 55.8293 49.4426 57.5591C48.6814 58.4956 47.3051 58.6378 46.3686 57.8766C45.432 57.1154 45.2899 55.7391 46.0511 54.8026C48.2511 52.0957 51.6148 50.3594 55.3826 50.3594C56.5895 50.3594 57.5678 51.3377 57.5678 52.5446C57.5678 53.7515 56.5895 54.7298 55.3826 54.7298Z" fill="white"/>
<path fill-rule="evenodd" clip-rule="evenodd" d="M45.7249 59.5054C46.9288 59.5895 47.8366 60.6337 47.7524 61.8376C47.74 62.0151 47.7337 62.195 47.7337 62.3766C47.7337 63.5834 46.7554 64.5618 45.5485 64.5618C44.3416 64.5618 43.3633 63.5834 43.3633 62.3766C43.3633 62.0936 43.3731 61.8121 43.3926 61.533C43.4768 60.3291 44.5209 59.4213 45.7249 59.5054Z" fill="white"/>
<path fill-rule="evenodd" clip-rule="evenodd" d="M96.0267 71.771C96.0267 53.793 81.4493 39.2188 63.467 39.2188C45.4848 39.2188 30.9072 53.793 30.9072 71.771C30.9072 89.7493 45.4848 104.323 63.467 104.323C81.4493 104.323 96.0267 89.7493 96.0267 71.771Z" fill="#D0C7E5"/>
<mask id="mask8_2358_78991" style="mask-type:alpha" maskUnits="userSpaceOnUse" x="30" y="39" width="67" height="66">
<path fill-rule="evenodd" clip-rule="evenodd" d="M30.9072 71.772C30.9072 89.7503 45.4846 104.324 63.467 104.324C81.4491 104.324 96.0265 89.7503 96.0265 71.772C96.0265 53.794 81.4491 39.2197 63.467 39.2197C45.4846 39.2197 30.9072 53.794 30.9072 71.772Z" fill="white"/>
</mask>
<g mask="url(#mask8_2358_78991)">
<path fill-rule="evenodd" clip-rule="evenodd" d="M73.6877 42.667C79.9472 46.4369 84.9813 52.3248 87.5915 59.7563C93.5498 76.7189 84.6258 95.2986 67.6593 101.255C60.2259 103.865 52.4823 103.619 45.626 101.092C53.6538 105.927 63.6977 107.277 73.231 103.93C90.1974 97.9736 99.1214 79.3936 93.1632 62.431C89.8154 52.9 82.4812 45.9078 73.6877 42.667Z" fill="#B9ABD8"/>
</g>
<path fill-rule="evenodd" clip-rule="evenodd" d="M29.1602 71.7721C29.1602 52.8282 44.5208 37.4717 63.4681 37.4717C82.4156 37.4717 97.776 52.8282 97.776 71.7721C97.776 90.7163 82.4156 106.073 63.4681 106.073C44.5208 106.073 29.1602 90.7163 29.1602 71.7721ZM63.4681 40.968C46.451 40.968 32.6565 54.76 32.6565 71.7721C32.6565 88.7845 46.451 102.576 63.4681 102.576C80.4853 102.576 94.2796 88.7845 94.2796 71.7721C94.2796 54.76 80.4853 40.968 63.4681 40.968Z" fill="#545454"/>
<path fill-rule="evenodd" clip-rule="evenodd" d="M50.9329 73.7496C50.9329 74.6993 50.1631 75.469 49.2131 75.469C48.2632 75.469 47.4932 74.6993 47.4932 73.7496C47.4932 72.7999 48.2632 72.0303 49.2131 72.0303C50.1631 72.0303 50.9329 72.7999 50.9329 73.7496Z" fill="#545454"/>
<path fill-rule="evenodd" clip-rule="evenodd" d="M79.6536 73.7496C79.6536 74.6993 78.8835 75.469 77.9339 75.469C76.9839 75.469 76.2139 74.6993 76.2139 73.7496C76.2139 72.7999 76.9839 72.0303 77.9339 72.0303C78.8835 72.0303 79.6536 72.7999 79.6536 73.7496Z" fill="#545454"/>
<path fill-rule="evenodd" clip-rule="evenodd" d="M71.6709 78.873C75.4068 78.873 77.8096 82.9281 75.9214 86.1508C73.4182 90.423 68.7783 93.2922 63.468 93.2922C58.2146 93.2922 53.6173 90.4839 51.0958 86.2875C49.1361 83.0255 51.4622 78.873 55.2682 78.873H71.6709Z" fill="#545454"/>
<path fill-rule="evenodd" clip-rule="evenodd" d="M55.1644 54.513C52.0832 54.513 49.334 55.9274 47.5276 58.1503C46.7665 59.0869 45.3903 59.2291 44.4537 58.468C43.5171 57.7069 43.3748 56.3307 44.1359 55.3941C46.7367 52.1936 50.7119 50.1426 55.1644 50.1426C56.3713 50.1426 57.3496 51.1209 57.3496 52.3278C57.3496 53.5347 56.3713 54.513 55.1644 54.513Z" fill="white"/>
<path fill-rule="evenodd" clip-rule="evenodd" d="M43.3263 61.3198C44.5303 61.4037 45.4383 62.4477 45.3544 63.6516C45.3385 63.8801 45.3304 64.1112 45.3304 64.3448C45.3304 65.5517 44.352 66.53 43.1452 66.53C41.9383 66.53 40.96 65.5517 40.96 64.3448C40.96 64.0104 40.9715 63.6779 40.9945 63.3479C41.0784 62.144 42.1224 61.236 43.3263 61.3198Z" fill="white"/>
</g>
<path fill-rule="evenodd" clip-rule="evenodd" d="M77.5427 16.0317C77.5427 8.02109 71.0474 1.52734 63.035 1.52734C55.0226 1.52734 48.5273 8.02109 48.5273 16.0317C48.5273 24.0423 55.0226 30.536 63.035 30.536C71.0474 30.536 77.5427 24.0423 77.5427 16.0317Z" fill="#A18FCC"/>
<path fill-rule="evenodd" clip-rule="evenodd" d="M47 16.0315C47 7.17713 54.1793 0 63.0348 0C71.8903 0 79.0696 7.17713 79.0696 16.0315C79.0696 24.8858 71.8903 32.0629 63.0348 32.0629C54.1793 32.0629 47 24.8858 47 16.0315ZM63.0348 3.05424C55.8654 3.05424 50.0542 8.8646 50.0542 16.0315C50.0542 23.1983 55.8654 29.0087 63.0348 29.0087C70.2041 29.0087 76.0153 23.1983 76.0153 16.0315C76.0153 8.8646 70.2041 3.05424 63.0348 3.05424Z" fill="#545454"/>
<path d="M68.9082 14.8545V20.4795C68.9082 21.515 68.0687 22.3545 67.0332 22.3545H58.5957C57.5602 22.3545 56.7207 21.515 56.7207 20.4795V14.8545" stroke="white" stroke-width="1.5" stroke-linecap="round" stroke-linejoin="round"/>
<path fill-rule="evenodd" clip-rule="evenodd" d="M68.9082 10.167H56.7207C56.2029 10.167 55.7832 10.5867 55.7832 11.1045V12.9795H69.8457V11.1045C69.8457 10.5867 69.426 10.167 68.9082 10.167Z" stroke="white" stroke-width="1.5" stroke-linecap="round" stroke-linejoin="round"/>
<path fill-rule="evenodd" clip-rule="evenodd" d="M60.3145 16.8526C60.3145 16.7654 60.3947 16.7348 60.4923 16.7847L62.636 17.8713C62.7451 17.9212 62.8838 17.9212 62.9929 17.8713L65.1366 16.7847C65.2349 16.7348 65.3145 16.7654 65.3145 16.8526L65.3145 17.3871C65.3071 17.4849 65.2423 17.5756 65.1366 17.6361L62.9936 18.7234C62.8844 18.7732 62.7458 18.7732 62.6366 18.7234L60.4929 17.6367C60.3873 17.5762 60.3225 17.4855 60.3151 17.3877L60.3145 16.8526Z" fill="white"/>
</svg>
